<?xml version="1.0" encoding="UTF-8" standalone="no" ?>
<!DOCTYPE svg PUBLIC "-//W3C//DTD SVG 1.1//EN" "http://www.w3.org/Graphics/SVG/1.1/DTD/svg11.dtd">
<svg xmlns="http://www.w3.org/2000/svg" xmlns:xlink="http://www.w3.org/1999/xlink" version="1.1" width="100" height="100" viewBox="0 0 100 100" xml:space="preserve">
<desc>Created with Fabric.js 3.6.6</desc>
<defs>
</defs>
<g transform="matrix(6.4 0 0 6.4 50.4 50.1)"  >
<path style="stroke: none; stroke-width: 0.2281; stroke-dasharray: none; stroke-linecap: butt; stroke-dashoffset: 0; stroke-linejoin: miter; stroke-miterlimit: 4; fill: rgb(255,255,255); fill-rule: nonzero; opacity: 1;"  transform=" translate(-11.55, -13.23)" d="m 9.9919 5.9866 c -0.70167 0.15599 -1.3955 0.37323 -2.0462 0.70078 c 0.014881 0.57462 0.052107 1.1252 0.12741 1.6845 c -0.25272 0.16191 -0.51864 0.30096 -0.75469 0.4905 c -0.23984 0.18451 -0.4845 0.36114 -0.70167 0.57693 c -0.43386 -0.28697 -0.8933 -0.55673 -1.3664 -0.79478 c -0.50993 0.54878 -0.98668 1.141 -1.3762 1.8039 c 0.3061 0.48048 0.63463 0.96347 0.93868 1.3401 v 4.0679 l -0.00446 0.53817 c 0.00103 0.24101 0.00446 0.50476 0.00446 0.55733 c 0 2.3684 3.0042 3.5069 6.7369 3.5199 h 0.009 c 3.7327 -0.01309 6.7361 -1.1516 6.7361 -3.5199 c 0 -0.05354 0.0033 -0.31618 0.0045 -0.55733 l -0.0045 -0.53817 v -0.32477 l 0.0013 -0.000445 v -3.7427 c 0.35118 -0.44209 0.68346 -0.9298 0.93824 -1.3401 c -0.38944 -0.66281 -0.8663 -1.2551 -1.3762 -1.8039 c -0.47293 0.23805 -0.93251 0.50782 -1.3664 0.79478 c -0.2171 -0.21579 -0.46149 -0.39242 -0.70167 -0.57693 c -0.23598 -0.18954 -0.502 -0.32859 -0.75424 -0.4905 c 0.075099 -0.55926 0.11246 -1.1098 0.12741 -1.6845 c -0.65082 -0.32755 -1.3451 -0.54479 -2.0471 -0.70078 c -0.28028 0.47107 -0.53635 0.98128 -0.75959 1.48 c -0.26471 -0.044233 -0.53071 -0.060538 -0.79701 -0.063707 v -0.0004455 c -0.0019 0 -0.0038 0.0004455 -0.0053 0.0004455 c -0.0016 0 -0.0033 -0.0004455 -0.0049 -0.0004455 v 0.0004455 c -0.26678 0.00317 -0.53268 0.019473 -0.79746 0.063707 c -0.22313 -0.49869 -0.47938 -1.0089 -0.76008 -1.48 z" stroke-linecap="round" />
</g>
</svg>